<svg xmlns="http://www.w3.org/2000/svg" viewBox="0 0 1600 900" preserveAspectRatio="none">
  <defs>
    <linearGradient id="bg" x1="0" y1="0" x2="1" y2="1">
      <stop offset="0" stop-color="#FBF8F2"/>
      <stop offset="0.55" stop-color="#F7F1E8"/>
      <stop offset="1" stop-color="#EEF4FA"/>
    </linearGradient>
    <linearGradient id="gold" x1="0" y1="0" x2="1" y2="0">
      <stop offset="0" stop-color="#C99A2E" stop-opacity="0"/>
      <stop offset="0.45" stop-color="#C99A2E" stop-opacity=".42"/>
      <stop offset="1" stop-color="#C99A2E" stop-opacity="0"/>
    </linearGradient>
    <linearGradient id="blue" x1="0" y1="0" x2="1" y2="0">
      <stop offset="0" stop-color="#123D68" stop-opacity="0"/>
      <stop offset="0.55" stop-color="#123D68" stop-opacity=".34"/>
      <stop offset="1" stop-color="#123D68" stop-opacity="0"/>
    </linearGradient>
  </defs>
  <rect width="1600" height="900" fill="url(#bg)"/>
  <circle cx="1350" cy="160" r="330" fill="#C99A2E" opacity=".055"/>
  <circle cx="190" cy="740" r="410" fill="#123D68" opacity=".045"/>
  <path d="M-110 148 C 180 28, 335 255, 590 116 S 992 -26, 1710 86" fill="none" stroke="url(#gold)" stroke-width="2.4"/>
  <path d="M-100 218 C 220 106, 410 306, 685 168 S 1098 42, 1695 152" fill="none" stroke="url(#blue)" stroke-width="1.8"/>
  <path d="M-120 765 C 170 592, 370 840, 655 697 S 1065 580, 1710 640" fill="none" stroke="url(#gold)" stroke-width="2.4"/>
  <path d="M-140 842 C 125 655, 382 900, 683 760 S 1090 650, 1720 722" fill="none" stroke="url(#blue)" stroke-width="1.8"/>
  <path d="M1160 900 C 1280 720, 1390 572, 1600 515" fill="none" stroke="#C99A2E" stroke-opacity=".24" stroke-width="2"/>
  <path d="M1240 900 C 1350 755, 1455 642, 1600 610" fill="none" stroke="#123D68" stroke-opacity=".18" stroke-width="1.6"/>
</svg>
