<svg xmlns="http://www.w3.org/2000/svg" viewBox="0 0 1600 1000" preserveAspectRatio="xMidYMid slice">
  <defs>
    <linearGradient id="base" x1="0" y1="0" x2="1" y2="1">
      <stop offset="0" stop-color="#FBF8F2"/>
      <stop offset=".55" stop-color="#F7F1E8"/>
      <stop offset="1" stop-color="#EAF1F8"/>
    </linearGradient>
    <filter id="soft" x="-20%" y="-20%" width="140%" height="140%"><feGaussianBlur stdDeviation="4"/></filter>
  </defs>
  <rect width="1600" height="1000" fill="url(#base)"/>
  <g opacity=".20" fill="none" stroke-linecap="round">
    <path d="M-100 160 C 240 30 405 275 675 135 S 1070 -40 1700 95" stroke="#C99A2E" stroke-width="2.8"/>
    <path d="M-100 235 C 230 100 445 325 705 190 S 1130 30 1700 160" stroke="#123D68" stroke-width="2.1"/>
    <path d="M-90 850 C 230 680 405 920 690 790 S 1070 655 1710 730" stroke="#123D68" stroke-width="2"/>
    <path d="M-120 760 C 170 610 360 850 645 705 S 1040 570 1700 635" stroke="#C99A2E" stroke-width="2.5"/>
  </g>
  <g opacity=".17" filter="url(#soft)">
    <path d="M1165 765 V390 c0-120 88-210 195-210s195 90 195 210v375" fill="none" stroke="#6B7280" stroke-width="22"/>
    <path d="M1215 760 V410 c0-88 64-154 145-154s145 66 145 154v350" fill="none" stroke="#6B7280" stroke-width="12"/>
    <path d="M1338 172 v-82 M1304 125 h68" stroke="#6B7280" stroke-width="16" stroke-linecap="round"/>
    <path d="M1125 765 h470" stroke="#6B7280" stroke-width="18"/>
  </g>
  <g opacity=".18" fill="#123D68">
    <circle cx="205" cy="665" r="45"/>
    <circle cx="310" cy="665" r="41"/>
    <path d="M145 775 c12-78 48-116 100-116 56 0 94 40 105 116z"/>
    <path d="M257 775 c10-70 44-105 91-105 50 0 83 37 94 105z"/>
  </g>
  <circle cx="1340" cy="820" r="230" fill="#C99A2E" opacity=".08"/>
  <circle cx="80" cy="170" r="260" fill="#123D68" opacity=".045"/>
</svg>
